<svg width="111" height="71" viewBox="0 0 111 71" fill="none" xmlns="http://www.w3.org/2000/svg">
<g filter="url(#filter0_d_2105_69)">
<path d="M39.855 8.11C38.7583 6.61666 37.335 5.415 35.585 4.505C33.8583 3.595 31.8517 3.14 29.565 3.14C27.3717 3.14 25.505 3.49 23.965 4.19C22.425 4.89 21.2467 5.905 20.43 7.235C19.6367 8.54166 19.24 10.1283 19.24 11.995C19.24 13.815 19.6483 15.3317 20.465 16.545C21.305 17.7583 22.39 18.8083 23.72 19.695C25.05 20.5583 26.4617 21.4217 27.955 22.285C29.4717 23.1483 30.9767 24.1283 32.47 25.225C33.9633 26.3217 35.2 27.7333 36.18 29.46C37.1833 31.1633 37.685 33.38 37.685 36.11C37.685 39.33 36.845 42.2 35.165 44.72C33.485 47.24 31.0933 49.2117 27.99 50.635C24.91 52.0583 21.2467 52.77 17 52.77C14.5967 52.77 12.3567 52.5833 10.28 52.21C8.22667 51.86 6.34833 51.3233 4.645 50.6L4.575 37.23H5.625L10.735 51.195L7.41 47.835C8.90333 48.8383 10.3733 49.62 11.82 50.18C13.29 50.74 15.04 51.02 17.07 51.02C19.94 51.02 22.4017 50.5883 24.455 49.725C26.5317 48.8617 28.1183 47.5783 29.215 45.875C30.335 44.1483 30.895 42.025 30.895 39.505C30.895 37.7317 30.58 36.25 29.95 35.06C29.32 33.87 28.4917 32.855 27.465 32.015C26.4383 31.175 25.33 30.44 24.14 29.81C22.9733 29.18 21.8533 28.5383 20.78 27.885C19.3333 27.0217 18.0267 26.0883 16.86 25.085C15.7167 24.0583 14.8067 22.8217 14.13 21.375C13.4767 19.9283 13.15 18.12 13.15 15.95C13.15 13.0567 13.8617 10.5133 15.285 8.32C16.7317 6.12667 18.7617 4.41167 21.375 3.175C23.9883 1.915 27.0567 1.285 30.58 1.285C32.9833 1.285 35.165 1.6 37.125 2.23C39.085 2.83667 41.0683 3.75833 43.075 4.995L38.91 3.91L43.6 -0.0100021H44.16L42.41 16.65H41.535L38.315 4.96L39.855 8.11ZM59.9259 4.365L55.0259 2.825L55.2709 2.055H74.2409L73.9959 2.825L68.3609 4.26L72.7709 44.65H71.6509L97.6209 4.47L92.2309 2.825L92.4759 2.055H106.336L106.091 2.825L100.211 4.575L68.7109 52.56H65.7009L59.9259 4.365Z" fill="black"/>
</g>
<defs>
<filter id="filter0_d_2105_69" x="0.574219" y="-0.0078125" width="109.762" height="60.7812" filterUnits="userSpaceOnUse" color-interpolation-filters="sRGB">
<feFlood flood-opacity="0" result="BackgroundImageFix"/>
<feColorMatrix in="SourceAlpha" type="matrix" values="0 0 0 0 0 0 0 0 0 0 0 0 0 0 0 0 0 0 127 0" result="hardAlpha"/>
<feOffset dy="4"/>
<feGaussianBlur stdDeviation="2"/>
<feComposite in2="hardAlpha" operator="out"/>
<feColorMatrix type="matrix" values="0 0 0 0 0 0 0 0 0 0 0 0 0 0 0 0 0 0 0.4 0"/>
<feBlend mode="normal" in2="BackgroundImageFix" result="effect1_dropShadow_2105_69"/>
<feBlend mode="normal" in="SourceGraphic" in2="effect1_dropShadow_2105_69" result="shape"/>
</filter>
</defs>
</svg>
